# Aspose.3D Wavefront OBJ Exporter
# Copyright 2004-2024 Aspose Pty Ltd.
# File created: 03/18/2024 15:10:23

mtllib material.lib
g Node #0

#
# object Node #0
#

v 0.20121124 0.06298285 0.03446774
v -0.12991774 -0.30423054 0.03446774
v -0.12991774 0.06298285 0.03446774
v 0.20121124 -0.30423054 0.03446774
v -0.12991774 0.06298285 0.3655967
v 0.20121124 -0.30423054 0.3655967
v 0.20121124 0.06298285 0.3655967
v -0.12991774 -0.30423054 0.3655967
v 0.20121124 0.06298285 0.3655967
v 0.20121124 -0.30423054 0.03446774
v 0.20121124 0.06298285 0.03446774
v 0.20121124 -0.30423054 0.3655967
v -0.12991774 0.06298285 0.03446774
v -0.12991774 -0.30423054 0.3655967
v -0.12991774 0.06298285 0.3655967
v -0.12991774 -0.30423054 0.03446774
v -0.12991774 0.06298285 0.03446774
v 0.20121124 0.06298285 0.3655967
v 0.20121124 0.06298285 0.03446774
v -0.12991774 0.06298285 0.3655967
v -0.12991774 -0.30423054 0.3655967
v 0.20121124 -0.30423054 0.03446774
v 0.20121124 -0.30423054 0.3655967
v -0.12991774 -0.30423054 0.03446774
# 24 vertices

vn 0 0 -1
vn 0 0 -1
vn 0 0 -1
vn 0 0 -1
vn 0 0 1
vn 0 0 1
vn 0 0 1
vn 0 0 1
vn 1 0 0
vn 1 0 0
vn 1 0 0
vn 1 0 0
vn -1 0 0
vn -1 0 0
vn -1 0 0
vn -1 0 0
vn 0 1 0
vn 0 1 0
vn 0 1 0
vn 0 1 0
vn 0 -1 0
vn 0 -1 0
vn 0 -1 0
vn 0 -1 0
# 24 vertex normals

usemtl mat_5755540
s 1
f 1//1 2//2 3//3
f 1//1 4//4 2//2
f 5//5 6//6 7//7
f 5//5 8//8 6//6
f 9//9 10//10 11//11
f 9//9 12//12 10//10
f 13//13 14//14 15//15
f 13//13 16//16 14//14
f 17//17 18//18 19//19
f 17//17 20//20 18//18
f 21//21 22//22 23//23
f 21//21 24//24 22//22
#12 polygons

